<svg viewBox="0 0 150 150" xmlns="http://www.w3.org/2000/svg">
  <defs>
    <filter id="fcc11830-4856-433e-84bc-47a919093362" filterUnits="userSpaceOnUse">
      <feColorMatrix type="matrix" values="0 0 0 0 0.99609375  0 0 0 0 0.99609375  0 0 0 0 0.99609375  0 0 0 1 0"></feColorMatrix>
    </filter>
    <linearGradient x1="0" y1="1" x2="0" y2="0" id="VFGwJ_AV4lAz3FkHnGt1n">
      <stop offset="0" stop-color="#ff51f9"></stop>
      <stop offset="0.5" stop-color="#a348ff"></stop>
      <stop offset="1" stop-color="#3978ff"></stop>
    </linearGradient>
    <linearGradient x1="0" y1="1" x2="0" y2="0" id="fa5b4358-a123-46b4-a32a-9028d97a525a">
      <stop offset="0" stop-color="#ff51f9"></stop>
      <stop offset="0.5" stop-color="#a348ff"></stop>
      <stop offset="1" stop-color="#3978ff"></stop>
    </linearGradient>
  </defs>
  <mask v-gra="im" id="ffa68406-78be-43ac-92b5-410613c39093">
    <g fill="#333" class="iconsvg-imagesvg icon_container" filter="url(#fcc11830-4856-433e-84bc-47a919093362)">
      <rect fill="#ff51f9" fill-opacity="0" stroke-width="2" x="0" y="0" width="142.91214859877806" height="142.91214859877806" class="image-rect"></rect>
      <svg viewBox="0 0 60 59.61548015301306" x="0" y="0" width="142.91214859877806" height="142.91214859877806" class="image-svg-svg bn" style="overflow: visible;">
        <g hollow-target="iconBnFill" mask="url(#18f88ba7-b896-434e-afcc-a1707c572898)">
          <g>
            <svg xmlns="http://www.w3.org/2000/svg" version="1.1" x="0" y="0" viewBox="-0.20632 -0.00061 64.41348 64.00061" enable-background="new 0 0 64 64" style="overflow: visible;" width="60" height="59.61548015301306" filtersec="colorsf3451762138">
              <g transform="scale(1, 1) skewX(0)">
                <path d="M59.178,28.276c-0.132-1.09-0.04-2.357,0.059-3.699c0.063-0.863,0.209-2.867,0.052-3.352  c-0.201-0.459-1.639-1.861-2.252-2.459c-0.966-0.942-1.878-1.832-2.507-2.742c-0.624-0.905-1.131-2.072-1.669-3.308  c-0.344-0.789-1.146-2.631-1.51-2.986c-0.392-0.313-2.315-0.887-3.138-1.132c-1.293-0.386-2.515-0.75-3.491-1.263  c-0.973-0.51-1.965-1.308-3.014-2.15c-0.677-0.542-2.242-1.8-2.727-1.945c0.012,0.004-0.057-0.005-0.192-0.004  c-0.763,0-2.007,0.243-3.105,0.458c-1.33,0.262-2.582,0.507-3.685,0.507c-1.1,0-2.351-0.245-3.674-0.505  c-1.102-0.216-2.349-0.46-3.114-0.46c-0.125,0-0.194,0.007-0.217,0.009c-0.464,0.143-1.972,1.354-2.695,1.936  c-1.053,0.846-2.047,1.644-3.022,2.156c-0.975,0.512-2.197,0.876-3.49,1.262c-0.822,0.245-2.747,0.819-3.145,1.138  c-0.357,0.35-1.159,2.191-1.501,2.978c-0.54,1.238-1.047,2.405-1.673,3.313c-0.627,0.907-1.539,1.797-2.505,2.739  c-0.614,0.598-2.051,2-2.255,2.466c-0.154,0.477-0.007,2.479,0.055,3.333c0.098,1.348,0.19,2.619,0.058,3.713  s-0.527,2.307-0.945,3.592c-0.266,0.817-0.887,2.727-0.851,3.232c0.085,0.491,1.146,2.197,1.598,2.926  c0.712,1.146,1.385,2.229,1.776,3.259c0.389,1.026,0.604,2.28,0.83,3.605c0.146,0.857,0.485,2.838,0.753,3.271  c0.305,0.396,2.037,1.415,2.777,1.851c1.163,0.684,2.261,1.329,3.085,2.059c0.822,0.728,1.595,1.739,2.414,2.811  c0.524,0.688,1.744,2.283,2.181,2.542c0.454,0.209,2.458,0.306,3.314,0.348c1.35,0.064,2.625,0.125,3.693,0.39  c1.069,0.263,2.226,0.8,3.45,1.369c0.834,0.388,2.546,1.184,3.102,1.232c0.557-0.049,2.272-0.846,3.101-1.23  c1.226-0.569,2.384-1.108,3.45-1.371c1.071-0.265,2.346-0.325,3.696-0.39c0.854-0.042,2.859-0.139,3.321-0.353  c0.429-0.253,1.602-1.787,2.165-2.525c0.824-1.079,1.598-2.093,2.424-2.824c0.823-0.728,1.921-1.373,3.084-2.057  c0.739-0.436,2.471-1.454,2.781-1.859c0.264-0.425,0.602-2.405,0.746-3.251c0.228-1.336,0.442-2.59,0.832-3.616  c0.392-1.029,1.063-2.112,1.775-3.259c0.453-0.729,1.514-2.435,1.6-2.935c0.035-0.498-0.563-2.337-0.851-3.222  C59.705,30.585,59.311,29.372,59.178,28.276z"></path>
                <path d="M62.39,27.888c-0.233-1.938,0.617-5.98-0.075-7.806c-0.691-1.825-4.011-4.288-5.12-5.894  c-1.108-1.608-2.233-5.583-3.695-6.877c-1.46-1.294-5.544-1.933-7.272-2.84s-4.572-3.904-6.468-4.372  C37.864-0.368,33.952,0.964,32,0.964c-1.952,0-5.863-1.333-7.759-0.865c-1.895,0.467-4.739,3.464-6.467,4.372  c-1.729,0.907-5.813,1.546-7.273,2.84c-1.462,1.294-2.587,5.27-3.695,6.877c-1.109,1.606-4.429,4.068-5.121,5.894  c-0.692,1.826,0.161,5.869-0.075,7.806c-0.235,1.938-2.031,5.661-1.795,7.6c0.235,1.938,2.869,5.122,3.561,6.947  c0.692,1.824,0.833,5.954,1.943,7.561c1.108,1.606,4.92,3.204,6.382,4.498c1.46,1.293,3.506,4.886,5.233,5.793  s5.846,0.549,7.741,1.017C26.569,61.77,30.049,64,32,64c1.952,0,5.431-2.23,7.327-2.697c1.895-0.468,6.013-0.109,7.74-1.017  c1.729-0.907,3.773-4.5,5.233-5.793c1.462-1.294,5.274-2.892,6.382-4.498c1.109-1.606,1.251-5.736,1.943-7.561  c0.691-1.825,3.325-5.01,3.561-6.947C64.421,33.549,62.625,29.826,62.39,27.888z M59.847,38.32  c-0.697,1.123-1.356,2.184-1.729,3.163c-0.37,0.977-0.579,2.203-0.802,3.503c-0.244,1.428-0.529,2.984-0.839,3.482  c-0.361,0.475-1.715,1.292-2.957,2.022c-1.139,0.669-2.214,1.301-2.997,1.994c-0.785,0.695-1.543,1.688-2.345,2.738  c-0.877,1.147-1.85,2.39-2.354,2.687c-0.541,0.251-2.116,0.345-3.553,0.414c-1.321,0.063-2.569,0.124-3.589,0.376  c-1.015,0.25-2.148,0.777-3.349,1.334c-1.294,0.603-2.725,1.247-3.318,1.284H32l-0.018-0.001c-0.591-0.036-2.019-0.681-3.31-1.28  c-1.208-0.561-2.34-1.087-3.357-1.337c-1.017-0.252-2.265-0.313-3.587-0.376c-1.437-0.069-3.013-0.163-3.545-0.41  c-0.514-0.302-1.487-1.546-2.359-2.689c-0.806-1.056-1.563-2.046-2.346-2.739s-1.859-1.325-2.997-1.994  c-1.242-0.73-2.596-1.549-2.953-2.016c-0.315-0.507-0.6-2.062-0.842-3.479c-0.224-1.31-0.433-2.536-0.803-3.513  c-0.372-0.979-1.032-2.04-1.729-3.163c-0.76-1.223-1.579-2.575-1.678-3.153c-0.043-0.593,0.428-2.1,0.873-3.466  c0.41-1.261,0.796-2.45,0.923-3.49c0.126-1.04,0.036-2.287-0.061-3.605c-0.105-1.434-0.202-3.012-0.02-3.571  c0.238-0.546,1.355-1.663,2.386-2.667c0.946-0.923,1.839-1.794,2.435-2.657c0.595-0.863,1.092-2.006,1.62-3.217  c0.575-1.322,1.224-2.765,1.644-3.174c0.465-0.374,1.974-0.842,3.353-1.254c1.267-0.377,2.463-0.733,3.392-1.221  c0.927-0.487,1.9-1.269,2.931-2.097c1.121-0.9,2.363-1.875,2.926-2.044l0.047-0.014l0.049,0.003  c0.003-0.004,0.089-0.012,0.238-0.012c0.819,0,2.094,0.25,3.218,0.469c1.299,0.255,2.523,0.495,3.57,0.495  c1.048,0,2.274-0.241,3.571-0.495c1.13-0.221,2.402-0.469,3.219-0.469c0.221,0,0.315,0.018,0.332,0.021  c0.563,0.167,1.805,1.143,2.927,2.044c1.036,0.832,2.007,1.612,2.933,2.098c0.929,0.488,2.125,0.844,3.392,1.222  c1.379,0.412,2.889,0.881,3.347,1.249c0.427,0.415,1.074,1.857,1.648,3.177c0.528,1.212,1.026,2.356,1.619,3.217  c0.598,0.865,1.49,1.736,2.437,2.659c1.03,1.004,2.149,2.122,2.384,2.661c0.185,0.567,0.088,2.146-0.018,3.581  c-0.096,1.321-0.187,2.563-0.061,3.599c0.127,1.042,0.513,2.231,0.922,3.489c0.446,1.369,0.917,2.877,0.874,3.462  C61.424,35.747,60.606,37.098,59.847,38.32z"></path>
              </g>
              <defs>
                <filter id="E360aw4R8ORjcAEzT6puS">
                  <feColorMatrix type="matrix" values="0 0 0 0 0.19921875  0 0 0 0 0.19921875  0 0 0 0 0.19921875  0 0 0 1 0"></feColorMatrix>
                </filter>
              </defs>
            </svg>
          </g>
          <g>
            <svg xmlns="http://www.w3.org/2000/svg" viewBox="0 0 43.344 58.32000000000001" width="45" height="44.71161" x="7.5" y="7.45193507650653" class="image-svg-letter">
              <path transform="translate(-3.0960000000000005 52.056000000000004)" d="M39.02 6.26Q36.36 6.26 32.36 2.02Q28.37-2.23 24.30-8.32Q20.23-14.40 17.42-19.80L17.42-19.80L10.87 1.37Q10.15 3.67 8.14 4.32Q6.12 4.97 3.10 4.97L3.10 4.97Q4.39 2.16 5.65-1.22Q6.91-4.61 9.43-12.10L9.43-12.10Q16.27-32.11 20.74-44.35L20.74-44.35Q20.81-44.57 21.20-45.58Q21.60-46.58 21.60-47.45L21.60-47.45Q21.60-48.82 20.16-48.82L20.16-48.82Q18.07-48.82 16.06-46.69Q14.04-44.57 12.82-41.58Q11.59-38.59 11.59-36.43L11.59-36.43Q11.59-34.78 12.31-33.12L12.31-33.12Q9.36-33.12 7.96-34.38Q6.55-35.64 6.55-37.80L6.55-37.80Q6.55-40.90 9.07-44.17Q11.59-47.45 15.19-49.64Q18.79-51.84 21.74-51.84L21.74-51.84Q25.70-51.84 25.70-47.66L25.70-47.66Q25.70-46.30 25.20-44.78L25.20-44.78L19.87-27.50Q20.74-28.01 24.84-31.18L24.84-31.18Q30.96-35.93 36.25-41.36Q41.54-46.80 45.00-52.06L45.00-52.06Q45.79-51.34 46.12-50.22Q46.44-49.10 46.44-48.17L46.44-48.17Q46.44-43.27 38.34-36.47Q30.24-29.66 19.87-23.04L19.87-23.04Q23.69-17.14 26.39-13.46Q29.09-9.79 33.19-5.65Q37.30-1.51 43.49 3.24L43.49 3.24Q42.84 4.46 41.54 5.36Q40.25 6.26 39.02 6.26L39.02 6.26Z"></path>
            </svg>
          </g>
        </g>
        <mask id="18f88ba7-b896-434e-afcc-a1707c572898">
          <g fill="white">
            <svg xmlns="http://www.w3.org/2000/svg" version="1.1" x="0" y="0" viewBox="-0.20632 -0.00061 64.41348 64.00061" enable-background="new 0 0 64 64" style="overflow: visible;" width="60" height="59.61548015301306" filtersec="colorsf3451762138">
              <g transform="scale(1, 1) skewX(0)">
                <path d="M59.178,28.276c-0.132-1.09-0.04-2.357,0.059-3.699c0.063-0.863,0.209-2.867,0.052-3.352  c-0.201-0.459-1.639-1.861-2.252-2.459c-0.966-0.942-1.878-1.832-2.507-2.742c-0.624-0.905-1.131-2.072-1.669-3.308  c-0.344-0.789-1.146-2.631-1.51-2.986c-0.392-0.313-2.315-0.887-3.138-1.132c-1.293-0.386-2.515-0.75-3.491-1.263  c-0.973-0.51-1.965-1.308-3.014-2.15c-0.677-0.542-2.242-1.8-2.727-1.945c0.012,0.004-0.057-0.005-0.192-0.004  c-0.763,0-2.007,0.243-3.105,0.458c-1.33,0.262-2.582,0.507-3.685,0.507c-1.1,0-2.351-0.245-3.674-0.505  c-1.102-0.216-2.349-0.46-3.114-0.46c-0.125,0-0.194,0.007-0.217,0.009c-0.464,0.143-1.972,1.354-2.695,1.936  c-1.053,0.846-2.047,1.644-3.022,2.156c-0.975,0.512-2.197,0.876-3.49,1.262c-0.822,0.245-2.747,0.819-3.145,1.138  c-0.357,0.35-1.159,2.191-1.501,2.978c-0.54,1.238-1.047,2.405-1.673,3.313c-0.627,0.907-1.539,1.797-2.505,2.739  c-0.614,0.598-2.051,2-2.255,2.466c-0.154,0.477-0.007,2.479,0.055,3.333c0.098,1.348,0.19,2.619,0.058,3.713  s-0.527,2.307-0.945,3.592c-0.266,0.817-0.887,2.727-0.851,3.232c0.085,0.491,1.146,2.197,1.598,2.926  c0.712,1.146,1.385,2.229,1.776,3.259c0.389,1.026,0.604,2.28,0.83,3.605c0.146,0.857,0.485,2.838,0.753,3.271  c0.305,0.396,2.037,1.415,2.777,1.851c1.163,0.684,2.261,1.329,3.085,2.059c0.822,0.728,1.595,1.739,2.414,2.811  c0.524,0.688,1.744,2.283,2.181,2.542c0.454,0.209,2.458,0.306,3.314,0.348c1.35,0.064,2.625,0.125,3.693,0.39  c1.069,0.263,2.226,0.8,3.45,1.369c0.834,0.388,2.546,1.184,3.102,1.232c0.557-0.049,2.272-0.846,3.101-1.23  c1.226-0.569,2.384-1.108,3.45-1.371c1.071-0.265,2.346-0.325,3.696-0.39c0.854-0.042,2.859-0.139,3.321-0.353  c0.429-0.253,1.602-1.787,2.165-2.525c0.824-1.079,1.598-2.093,2.424-2.824c0.823-0.728,1.921-1.373,3.084-2.057  c0.739-0.436,2.471-1.454,2.781-1.859c0.264-0.425,0.602-2.405,0.746-3.251c0.228-1.336,0.442-2.59,0.832-3.616  c0.392-1.029,1.063-2.112,1.775-3.259c0.453-0.729,1.514-2.435,1.6-2.935c0.035-0.498-0.563-2.337-0.851-3.222  C59.705,30.585,59.311,29.372,59.178,28.276z"></path>
                <path d="M62.39,27.888c-0.233-1.938,0.617-5.98-0.075-7.806c-0.691-1.825-4.011-4.288-5.12-5.894  c-1.108-1.608-2.233-5.583-3.695-6.877c-1.46-1.294-5.544-1.933-7.272-2.84s-4.572-3.904-6.468-4.372  C37.864-0.368,33.952,0.964,32,0.964c-1.952,0-5.863-1.333-7.759-0.865c-1.895,0.467-4.739,3.464-6.467,4.372  c-1.729,0.907-5.813,1.546-7.273,2.84c-1.462,1.294-2.587,5.27-3.695,6.877c-1.109,1.606-4.429,4.068-5.121,5.894  c-0.692,1.826,0.161,5.869-0.075,7.806c-0.235,1.938-2.031,5.661-1.795,7.6c0.235,1.938,2.869,5.122,3.561,6.947  c0.692,1.824,0.833,5.954,1.943,7.561c1.108,1.606,4.92,3.204,6.382,4.498c1.46,1.293,3.506,4.886,5.233,5.793  s5.846,0.549,7.741,1.017C26.569,61.77,30.049,64,32,64c1.952,0,5.431-2.23,7.327-2.697c1.895-0.468,6.013-0.109,7.74-1.017  c1.729-0.907,3.773-4.5,5.233-5.793c1.462-1.294,5.274-2.892,6.382-4.498c1.109-1.606,1.251-5.736,1.943-7.561  c0.691-1.825,3.325-5.01,3.561-6.947C64.421,33.549,62.625,29.826,62.39,27.888z M59.847,38.32  c-0.697,1.123-1.356,2.184-1.729,3.163c-0.37,0.977-0.579,2.203-0.802,3.503c-0.244,1.428-0.529,2.984-0.839,3.482  c-0.361,0.475-1.715,1.292-2.957,2.022c-1.139,0.669-2.214,1.301-2.997,1.994c-0.785,0.695-1.543,1.688-2.345,2.738  c-0.877,1.147-1.85,2.39-2.354,2.687c-0.541,0.251-2.116,0.345-3.553,0.414c-1.321,0.063-2.569,0.124-3.589,0.376  c-1.015,0.25-2.148,0.777-3.349,1.334c-1.294,0.603-2.725,1.247-3.318,1.284H32l-0.018-0.001c-0.591-0.036-2.019-0.681-3.31-1.28  c-1.208-0.561-2.34-1.087-3.357-1.337c-1.017-0.252-2.265-0.313-3.587-0.376c-1.437-0.069-3.013-0.163-3.545-0.41  c-0.514-0.302-1.487-1.546-2.359-2.689c-0.806-1.056-1.563-2.046-2.346-2.739s-1.859-1.325-2.997-1.994  c-1.242-0.73-2.596-1.549-2.953-2.016c-0.315-0.507-0.6-2.062-0.842-3.479c-0.224-1.31-0.433-2.536-0.803-3.513  c-0.372-0.979-1.032-2.04-1.729-3.163c-0.76-1.223-1.579-2.575-1.678-3.153c-0.043-0.593,0.428-2.1,0.873-3.466  c0.41-1.261,0.796-2.45,0.923-3.49c0.126-1.04,0.036-2.287-0.061-3.605c-0.105-1.434-0.202-3.012-0.02-3.571  c0.238-0.546,1.355-1.663,2.386-2.667c0.946-0.923,1.839-1.794,2.435-2.657c0.595-0.863,1.092-2.006,1.62-3.217  c0.575-1.322,1.224-2.765,1.644-3.174c0.465-0.374,1.974-0.842,3.353-1.254c1.267-0.377,2.463-0.733,3.392-1.221  c0.927-0.487,1.9-1.269,2.931-2.097c1.121-0.9,2.363-1.875,2.926-2.044l0.047-0.014l0.049,0.003  c0.003-0.004,0.089-0.012,0.238-0.012c0.819,0,2.094,0.25,3.218,0.469c1.299,0.255,2.523,0.495,3.57,0.495  c1.048,0,2.274-0.241,3.571-0.495c1.13-0.221,2.402-0.469,3.219-0.469c0.221,0,0.315,0.018,0.332,0.021  c0.563,0.167,1.805,1.143,2.927,2.044c1.036,0.832,2.007,1.612,2.933,2.098c0.929,0.488,2.125,0.844,3.392,1.222  c1.379,0.412,2.889,0.881,3.347,1.249c0.427,0.415,1.074,1.857,1.648,3.177c0.528,1.212,1.026,2.356,1.619,3.217  c0.598,0.865,1.49,1.736,2.437,2.659c1.03,1.004,2.149,2.122,2.384,2.661c0.185,0.567,0.088,2.146-0.018,3.581  c-0.096,1.321-0.187,2.563-0.061,3.599c0.127,1.042,0.513,2.231,0.922,3.489c0.446,1.369,0.917,2.877,0.874,3.462  C61.424,35.747,60.606,37.098,59.847,38.32z"></path>
              </g>
            </svg>
          </g>
          <g fill="black">
            <svg xmlns="http://www.w3.org/2000/svg" viewBox="0 0 43.344 58.32000000000001" width="45" height="44.71161" x="7.5" y="7.45193507650653" class="image-svg-letter">
              <path transform="translate(-3.0960000000000005 52.056000000000004)" d="M39.02 6.26Q36.36 6.26 32.36 2.02Q28.37-2.23 24.30-8.32Q20.23-14.40 17.42-19.80L17.42-19.80L10.87 1.37Q10.15 3.67 8.14 4.32Q6.12 4.97 3.10 4.97L3.10 4.97Q4.39 2.16 5.65-1.22Q6.91-4.61 9.43-12.10L9.43-12.10Q16.27-32.11 20.74-44.35L20.74-44.35Q20.81-44.57 21.20-45.58Q21.60-46.58 21.60-47.45L21.60-47.45Q21.60-48.82 20.16-48.82L20.16-48.82Q18.07-48.82 16.06-46.69Q14.04-44.57 12.82-41.58Q11.59-38.59 11.59-36.43L11.59-36.43Q11.59-34.78 12.31-33.12L12.31-33.12Q9.36-33.12 7.96-34.38Q6.55-35.64 6.55-37.80L6.55-37.80Q6.55-40.90 9.07-44.17Q11.59-47.45 15.19-49.64Q18.79-51.84 21.74-51.84L21.74-51.84Q25.70-51.84 25.70-47.66L25.70-47.66Q25.70-46.30 25.20-44.78L25.20-44.78L19.87-27.50Q20.74-28.01 24.84-31.18L24.84-31.18Q30.96-35.93 36.25-41.36Q41.54-46.80 45.00-52.06L45.00-52.06Q45.79-51.34 46.12-50.22Q46.44-49.10 46.44-48.17L46.44-48.17Q46.44-43.27 38.34-36.47Q30.24-29.66 19.87-23.04L19.87-23.04Q23.69-17.14 26.39-13.46Q29.09-9.79 33.19-5.65Q37.30-1.51 43.49 3.24L43.49 3.24Q42.84 4.46 41.54 5.36Q40.25 6.26 39.02 6.26L39.02 6.26Z"></path>
            </svg>
          </g>
        </mask>
      </svg>
      <defs>
        <filter id="colors2769168002">
          <feColorMatrix type="matrix" values="0 0 0 0 0.19921875  0 0 0 0 0.19921875  0 0 0 0 0.19921875  0 0 0 1 0" class="icon-fecolormatrix"></feColorMatrix>
        </filter>
      </defs>
    </g>
  </mask>
  <g data-v-2cb57da0="" fill="#ff51f9" class="icon-text-wrapper icon-svg-group iconsvg" transform="matrix(1, 0, 0, 1, 2.75771, 3.701147)">
    <g fill="#333" class="iconsvg-imagesvg icon_container" transform="translate(0,0)" mask="url(#ffa68406-78be-43ac-92b5-410613c39093)">
      <rect fill="#ff51f9" fill-opacity="0" stroke-width="2" x="0" y="0" width="142.91214859877806" height="142.91214859877806" class="image-rect"></rect>
      <svg viewBox="0 0 60 59.61548015301306" x="0" y="0" width="142.91214859877806" height="142.91214859877806" class="image-svg-svg bn" style="overflow: visible;">
        <g hollow-target="iconBnFill" mask="url(#18f88ba7-b896-434e-afcc-a1707c572898)">
          <g>
            <svg xmlns="http://www.w3.org/2000/svg" version="1.1" x="0" y="0" viewBox="-0.20632 -0.00061 64.41348 64.00061" enable-background="new 0 0 64 64" style="overflow: visible;" width="60" height="59.61548015301306" filtersec="colorsf3451762138" filter="url(#E360aw4R8ORjcAEzT6puS)">
              <g transform="scale(1, 1) skewX(0)">
                <path d="M59.178,28.276c-0.132-1.09-0.04-2.357,0.059-3.699c0.063-0.863,0.209-2.867,0.052-3.352  c-0.201-0.459-1.639-1.861-2.252-2.459c-0.966-0.942-1.878-1.832-2.507-2.742c-0.624-0.905-1.131-2.072-1.669-3.308  c-0.344-0.789-1.146-2.631-1.51-2.986c-0.392-0.313-2.315-0.887-3.138-1.132c-1.293-0.386-2.515-0.75-3.491-1.263  c-0.973-0.51-1.965-1.308-3.014-2.15c-0.677-0.542-2.242-1.8-2.727-1.945c0.012,0.004-0.057-0.005-0.192-0.004  c-0.763,0-2.007,0.243-3.105,0.458c-1.33,0.262-2.582,0.507-3.685,0.507c-1.1,0-2.351-0.245-3.674-0.505  c-1.102-0.216-2.349-0.46-3.114-0.46c-0.125,0-0.194,0.007-0.217,0.009c-0.464,0.143-1.972,1.354-2.695,1.936  c-1.053,0.846-2.047,1.644-3.022,2.156c-0.975,0.512-2.197,0.876-3.49,1.262c-0.822,0.245-2.747,0.819-3.145,1.138  c-0.357,0.35-1.159,2.191-1.501,2.978c-0.54,1.238-1.047,2.405-1.673,3.313c-0.627,0.907-1.539,1.797-2.505,2.739  c-0.614,0.598-2.051,2-2.255,2.466c-0.154,0.477-0.007,2.479,0.055,3.333c0.098,1.348,0.19,2.619,0.058,3.713  s-0.527,2.307-0.945,3.592c-0.266,0.817-0.887,2.727-0.851,3.232c0.085,0.491,1.146,2.197,1.598,2.926  c0.712,1.146,1.385,2.229,1.776,3.259c0.389,1.026,0.604,2.28,0.83,3.605c0.146,0.857,0.485,2.838,0.753,3.271  c0.305,0.396,2.037,1.415,2.777,1.851c1.163,0.684,2.261,1.329,3.085,2.059c0.822,0.728,1.595,1.739,2.414,2.811  c0.524,0.688,1.744,2.283,2.181,2.542c0.454,0.209,2.458,0.306,3.314,0.348c1.35,0.064,2.625,0.125,3.693,0.39  c1.069,0.263,2.226,0.8,3.45,1.369c0.834,0.388,2.546,1.184,3.102,1.232c0.557-0.049,2.272-0.846,3.101-1.23  c1.226-0.569,2.384-1.108,3.45-1.371c1.071-0.265,2.346-0.325,3.696-0.39c0.854-0.042,2.859-0.139,3.321-0.353  c0.429-0.253,1.602-1.787,2.165-2.525c0.824-1.079,1.598-2.093,2.424-2.824c0.823-0.728,1.921-1.373,3.084-2.057  c0.739-0.436,2.471-1.454,2.781-1.859c0.264-0.425,0.602-2.405,0.746-3.251c0.228-1.336,0.442-2.59,0.832-3.616  c0.392-1.029,1.063-2.112,1.775-3.259c0.453-0.729,1.514-2.435,1.6-2.935c0.035-0.498-0.563-2.337-0.851-3.222  C59.705,30.585,59.311,29.372,59.178,28.276z"></path>
                <path d="M62.39,27.888c-0.233-1.938,0.617-5.98-0.075-7.806c-0.691-1.825-4.011-4.288-5.12-5.894  c-1.108-1.608-2.233-5.583-3.695-6.877c-1.46-1.294-5.544-1.933-7.272-2.84s-4.572-3.904-6.468-4.372  C37.864-0.368,33.952,0.964,32,0.964c-1.952,0-5.863-1.333-7.759-0.865c-1.895,0.467-4.739,3.464-6.467,4.372  c-1.729,0.907-5.813,1.546-7.273,2.84c-1.462,1.294-2.587,5.27-3.695,6.877c-1.109,1.606-4.429,4.068-5.121,5.894  c-0.692,1.826,0.161,5.869-0.075,7.806c-0.235,1.938-2.031,5.661-1.795,7.6c0.235,1.938,2.869,5.122,3.561,6.947  c0.692,1.824,0.833,5.954,1.943,7.561c1.108,1.606,4.92,3.204,6.382,4.498c1.46,1.293,3.506,4.886,5.233,5.793  s5.846,0.549,7.741,1.017C26.569,61.77,30.049,64,32,64c1.952,0,5.431-2.23,7.327-2.697c1.895-0.468,6.013-0.109,7.74-1.017  c1.729-0.907,3.773-4.5,5.233-5.793c1.462-1.294,5.274-2.892,6.382-4.498c1.109-1.606,1.251-5.736,1.943-7.561  c0.691-1.825,3.325-5.01,3.561-6.947C64.421,33.549,62.625,29.826,62.39,27.888z M59.847,38.32  c-0.697,1.123-1.356,2.184-1.729,3.163c-0.37,0.977-0.579,2.203-0.802,3.503c-0.244,1.428-0.529,2.984-0.839,3.482  c-0.361,0.475-1.715,1.292-2.957,2.022c-1.139,0.669-2.214,1.301-2.997,1.994c-0.785,0.695-1.543,1.688-2.345,2.738  c-0.877,1.147-1.85,2.39-2.354,2.687c-0.541,0.251-2.116,0.345-3.553,0.414c-1.321,0.063-2.569,0.124-3.589,0.376  c-1.015,0.25-2.148,0.777-3.349,1.334c-1.294,0.603-2.725,1.247-3.318,1.284H32l-0.018-0.001c-0.591-0.036-2.019-0.681-3.31-1.28  c-1.208-0.561-2.34-1.087-3.357-1.337c-1.017-0.252-2.265-0.313-3.587-0.376c-1.437-0.069-3.013-0.163-3.545-0.41  c-0.514-0.302-1.487-1.546-2.359-2.689c-0.806-1.056-1.563-2.046-2.346-2.739s-1.859-1.325-2.997-1.994  c-1.242-0.73-2.596-1.549-2.953-2.016c-0.315-0.507-0.6-2.062-0.842-3.479c-0.224-1.31-0.433-2.536-0.803-3.513  c-0.372-0.979-1.032-2.04-1.729-3.163c-0.76-1.223-1.579-2.575-1.678-3.153c-0.043-0.593,0.428-2.1,0.873-3.466  c0.41-1.261,0.796-2.45,0.923-3.49c0.126-1.04,0.036-2.287-0.061-3.605c-0.105-1.434-0.202-3.012-0.02-3.571  c0.238-0.546,1.355-1.663,2.386-2.667c0.946-0.923,1.839-1.794,2.435-2.657c0.595-0.863,1.092-2.006,1.62-3.217  c0.575-1.322,1.224-2.765,1.644-3.174c0.465-0.374,1.974-0.842,3.353-1.254c1.267-0.377,2.463-0.733,3.392-1.221  c0.927-0.487,1.9-1.269,2.931-2.097c1.121-0.9,2.363-1.875,2.926-2.044l0.047-0.014l0.049,0.003  c0.003-0.004,0.089-0.012,0.238-0.012c0.819,0,2.094,0.25,3.218,0.469c1.299,0.255,2.523,0.495,3.57,0.495  c1.048,0,2.274-0.241,3.571-0.495c1.13-0.221,2.402-0.469,3.219-0.469c0.221,0,0.315,0.018,0.332,0.021  c0.563,0.167,1.805,1.143,2.927,2.044c1.036,0.832,2.007,1.612,2.933,2.098c0.929,0.488,2.125,0.844,3.392,1.222  c1.379,0.412,2.889,0.881,3.347,1.249c0.427,0.415,1.074,1.857,1.648,3.177c0.528,1.212,1.026,2.356,1.619,3.217  c0.598,0.865,1.49,1.736,2.437,2.659c1.03,1.004,2.149,2.122,2.384,2.661c0.185,0.567,0.088,2.146-0.018,3.581  c-0.096,1.321-0.187,2.563-0.061,3.599c0.127,1.042,0.513,2.231,0.922,3.489c0.446,1.369,0.917,2.877,0.874,3.462  C61.424,35.747,60.606,37.098,59.847,38.32z"></path>
              </g>
              <defs>
                <filter id="E360aw4R8ORjcAEzT6puS">
                  <feColorMatrix type="matrix" values="0 0 0 0 0.19921875  0 0 0 0 0.19921875  0 0 0 0 0.19921875  0 0 0 1 0"></feColorMatrix>
                </filter>
              </defs>
            </svg>
          </g>
          <g filter="url(#colors2769168002)">
            <svg xmlns="http://www.w3.org/2000/svg" viewBox="0 0 43.344 58.32000000000001" width="45" height="44.71161" x="7.5" y="7.45193507650653" class="image-svg-letter">
              <path transform="translate(-3.0960000000000005 52.056000000000004)" d="M39.02 6.26Q36.36 6.26 32.36 2.02Q28.37-2.23 24.30-8.32Q20.23-14.40 17.42-19.80L17.42-19.80L10.87 1.37Q10.15 3.67 8.14 4.32Q6.12 4.97 3.10 4.97L3.10 4.97Q4.39 2.16 5.65-1.22Q6.91-4.61 9.43-12.10L9.43-12.10Q16.27-32.11 20.74-44.35L20.74-44.35Q20.81-44.57 21.20-45.58Q21.60-46.58 21.60-47.45L21.60-47.45Q21.60-48.82 20.16-48.82L20.16-48.82Q18.07-48.82 16.06-46.69Q14.04-44.57 12.82-41.58Q11.59-38.59 11.59-36.43L11.59-36.43Q11.59-34.78 12.31-33.12L12.31-33.12Q9.36-33.12 7.96-34.38Q6.55-35.64 6.55-37.80L6.55-37.80Q6.55-40.90 9.07-44.17Q11.59-47.45 15.19-49.64Q18.79-51.84 21.74-51.84L21.74-51.84Q25.70-51.84 25.70-47.66L25.70-47.66Q25.70-46.30 25.20-44.78L25.20-44.78L19.87-27.50Q20.74-28.01 24.84-31.18L24.84-31.18Q30.96-35.93 36.25-41.36Q41.54-46.80 45.00-52.06L45.00-52.06Q45.79-51.34 46.12-50.22Q46.44-49.10 46.44-48.17L46.44-48.17Q46.44-43.27 38.34-36.47Q30.24-29.66 19.87-23.04L19.87-23.04Q23.69-17.14 26.39-13.46Q29.09-9.79 33.19-5.65Q37.30-1.51 43.49 3.24L43.49 3.24Q42.84 4.46 41.54 5.36Q40.25 6.26 39.02 6.26L39.02 6.26Z"></path>
            </svg>
          </g>
        </g>
        <mask id="18f88ba7-b896-434e-afcc-a1707c572898">
          <g fill="white">
            <svg xmlns="http://www.w3.org/2000/svg" version="1.1" x="0" y="0" viewBox="-0.20632 -0.00061 64.41348 64.00061" enable-background="new 0 0 64 64" style="overflow: visible;" width="60" height="59.61548015301306" filtersec="colorsf3451762138">
              <g transform="scale(1, 1) skewX(0)">
                <path d="M59.178,28.276c-0.132-1.09-0.04-2.357,0.059-3.699c0.063-0.863,0.209-2.867,0.052-3.352  c-0.201-0.459-1.639-1.861-2.252-2.459c-0.966-0.942-1.878-1.832-2.507-2.742c-0.624-0.905-1.131-2.072-1.669-3.308  c-0.344-0.789-1.146-2.631-1.51-2.986c-0.392-0.313-2.315-0.887-3.138-1.132c-1.293-0.386-2.515-0.75-3.491-1.263  c-0.973-0.51-1.965-1.308-3.014-2.15c-0.677-0.542-2.242-1.8-2.727-1.945c0.012,0.004-0.057-0.005-0.192-0.004  c-0.763,0-2.007,0.243-3.105,0.458c-1.33,0.262-2.582,0.507-3.685,0.507c-1.1,0-2.351-0.245-3.674-0.505  c-1.102-0.216-2.349-0.46-3.114-0.46c-0.125,0-0.194,0.007-0.217,0.009c-0.464,0.143-1.972,1.354-2.695,1.936  c-1.053,0.846-2.047,1.644-3.022,2.156c-0.975,0.512-2.197,0.876-3.49,1.262c-0.822,0.245-2.747,0.819-3.145,1.138  c-0.357,0.35-1.159,2.191-1.501,2.978c-0.54,1.238-1.047,2.405-1.673,3.313c-0.627,0.907-1.539,1.797-2.505,2.739  c-0.614,0.598-2.051,2-2.255,2.466c-0.154,0.477-0.007,2.479,0.055,3.333c0.098,1.348,0.19,2.619,0.058,3.713  s-0.527,2.307-0.945,3.592c-0.266,0.817-0.887,2.727-0.851,3.232c0.085,0.491,1.146,2.197,1.598,2.926  c0.712,1.146,1.385,2.229,1.776,3.259c0.389,1.026,0.604,2.28,0.83,3.605c0.146,0.857,0.485,2.838,0.753,3.271  c0.305,0.396,2.037,1.415,2.777,1.851c1.163,0.684,2.261,1.329,3.085,2.059c0.822,0.728,1.595,1.739,2.414,2.811  c0.524,0.688,1.744,2.283,2.181,2.542c0.454,0.209,2.458,0.306,3.314,0.348c1.35,0.064,2.625,0.125,3.693,0.39  c1.069,0.263,2.226,0.8,3.45,1.369c0.834,0.388,2.546,1.184,3.102,1.232c0.557-0.049,2.272-0.846,3.101-1.23  c1.226-0.569,2.384-1.108,3.45-1.371c1.071-0.265,2.346-0.325,3.696-0.39c0.854-0.042,2.859-0.139,3.321-0.353  c0.429-0.253,1.602-1.787,2.165-2.525c0.824-1.079,1.598-2.093,2.424-2.824c0.823-0.728,1.921-1.373,3.084-2.057  c0.739-0.436,2.471-1.454,2.781-1.859c0.264-0.425,0.602-2.405,0.746-3.251c0.228-1.336,0.442-2.59,0.832-3.616  c0.392-1.029,1.063-2.112,1.775-3.259c0.453-0.729,1.514-2.435,1.6-2.935c0.035-0.498-0.563-2.337-0.851-3.222  C59.705,30.585,59.311,29.372,59.178,28.276z"></path>
                <path d="M62.39,27.888c-0.233-1.938,0.617-5.98-0.075-7.806c-0.691-1.825-4.011-4.288-5.12-5.894  c-1.108-1.608-2.233-5.583-3.695-6.877c-1.46-1.294-5.544-1.933-7.272-2.84s-4.572-3.904-6.468-4.372  C37.864-0.368,33.952,0.964,32,0.964c-1.952,0-5.863-1.333-7.759-0.865c-1.895,0.467-4.739,3.464-6.467,4.372  c-1.729,0.907-5.813,1.546-7.273,2.84c-1.462,1.294-2.587,5.27-3.695,6.877c-1.109,1.606-4.429,4.068-5.121,5.894  c-0.692,1.826,0.161,5.869-0.075,7.806c-0.235,1.938-2.031,5.661-1.795,7.6c0.235,1.938,2.869,5.122,3.561,6.947  c0.692,1.824,0.833,5.954,1.943,7.561c1.108,1.606,4.92,3.204,6.382,4.498c1.46,1.293,3.506,4.886,5.233,5.793  s5.846,0.549,7.741,1.017C26.569,61.77,30.049,64,32,64c1.952,0,5.431-2.23,7.327-2.697c1.895-0.468,6.013-0.109,7.74-1.017  c1.729-0.907,3.773-4.5,5.233-5.793c1.462-1.294,5.274-2.892,6.382-4.498c1.109-1.606,1.251-5.736,1.943-7.561  c0.691-1.825,3.325-5.01,3.561-6.947C64.421,33.549,62.625,29.826,62.39,27.888z M59.847,38.32  c-0.697,1.123-1.356,2.184-1.729,3.163c-0.37,0.977-0.579,2.203-0.802,3.503c-0.244,1.428-0.529,2.984-0.839,3.482  c-0.361,0.475-1.715,1.292-2.957,2.022c-1.139,0.669-2.214,1.301-2.997,1.994c-0.785,0.695-1.543,1.688-2.345,2.738  c-0.877,1.147-1.85,2.39-2.354,2.687c-0.541,0.251-2.116,0.345-3.553,0.414c-1.321,0.063-2.569,0.124-3.589,0.376  c-1.015,0.25-2.148,0.777-3.349,1.334c-1.294,0.603-2.725,1.247-3.318,1.284H32l-0.018-0.001c-0.591-0.036-2.019-0.681-3.31-1.28  c-1.208-0.561-2.34-1.087-3.357-1.337c-1.017-0.252-2.265-0.313-3.587-0.376c-1.437-0.069-3.013-0.163-3.545-0.41  c-0.514-0.302-1.487-1.546-2.359-2.689c-0.806-1.056-1.563-2.046-2.346-2.739s-1.859-1.325-2.997-1.994  c-1.242-0.73-2.596-1.549-2.953-2.016c-0.315-0.507-0.6-2.062-0.842-3.479c-0.224-1.31-0.433-2.536-0.803-3.513  c-0.372-0.979-1.032-2.04-1.729-3.163c-0.76-1.223-1.579-2.575-1.678-3.153c-0.043-0.593,0.428-2.1,0.873-3.466  c0.41-1.261,0.796-2.45,0.923-3.49c0.126-1.04,0.036-2.287-0.061-3.605c-0.105-1.434-0.202-3.012-0.02-3.571  c0.238-0.546,1.355-1.663,2.386-2.667c0.946-0.923,1.839-1.794,2.435-2.657c0.595-0.863,1.092-2.006,1.62-3.217  c0.575-1.322,1.224-2.765,1.644-3.174c0.465-0.374,1.974-0.842,3.353-1.254c1.267-0.377,2.463-0.733,3.392-1.221  c0.927-0.487,1.9-1.269,2.931-2.097c1.121-0.9,2.363-1.875,2.926-2.044l0.047-0.014l0.049,0.003  c0.003-0.004,0.089-0.012,0.238-0.012c0.819,0,2.094,0.25,3.218,0.469c1.299,0.255,2.523,0.495,3.57,0.495  c1.048,0,2.274-0.241,3.571-0.495c1.13-0.221,2.402-0.469,3.219-0.469c0.221,0,0.315,0.018,0.332,0.021  c0.563,0.167,1.805,1.143,2.927,2.044c1.036,0.832,2.007,1.612,2.933,2.098c0.929,0.488,2.125,0.844,3.392,1.222  c1.379,0.412,2.889,0.881,3.347,1.249c0.427,0.415,1.074,1.857,1.648,3.177c0.528,1.212,1.026,2.356,1.619,3.217  c0.598,0.865,1.49,1.736,2.437,2.659c1.03,1.004,2.149,2.122,2.384,2.661c0.185,0.567,0.088,2.146-0.018,3.581  c-0.096,1.321-0.187,2.563-0.061,3.599c0.127,1.042,0.513,2.231,0.922,3.489c0.446,1.369,0.917,2.877,0.874,3.462  C61.424,35.747,60.606,37.098,59.847,38.32z"></path>
              </g>
            </svg>
          </g>
          <g fill="black">
            <svg xmlns="http://www.w3.org/2000/svg" viewBox="0 0 43.344 58.32000000000001" width="45" height="44.71161" x="7.5" y="7.45193507650653" class="image-svg-letter">
              <path transform="translate(-3.0960000000000005 52.056000000000004)" d="M39.02 6.26Q36.36 6.26 32.36 2.02Q28.37-2.23 24.30-8.32Q20.23-14.40 17.42-19.80L17.42-19.80L10.87 1.37Q10.15 3.67 8.14 4.32Q6.12 4.97 3.10 4.97L3.10 4.97Q4.39 2.16 5.65-1.22Q6.91-4.61 9.43-12.10L9.43-12.10Q16.27-32.11 20.74-44.35L20.74-44.35Q20.81-44.57 21.20-45.58Q21.60-46.58 21.60-47.45L21.60-47.45Q21.60-48.82 20.16-48.82L20.16-48.82Q18.07-48.82 16.06-46.69Q14.04-44.57 12.82-41.58Q11.59-38.59 11.59-36.43L11.59-36.43Q11.59-34.78 12.31-33.12L12.31-33.12Q9.36-33.12 7.96-34.38Q6.55-35.64 6.55-37.80L6.55-37.80Q6.55-40.90 9.07-44.17Q11.59-47.45 15.19-49.64Q18.79-51.84 21.74-51.84L21.74-51.84Q25.70-51.84 25.70-47.66L25.70-47.66Q25.70-46.30 25.20-44.78L25.20-44.78L19.87-27.50Q20.74-28.01 24.84-31.18L24.84-31.18Q30.96-35.93 36.25-41.36Q41.54-46.80 45.00-52.06L45.00-52.06Q45.79-51.34 46.12-50.22Q46.44-49.10 46.44-48.17L46.44-48.17Q46.44-43.27 38.34-36.47Q30.24-29.66 19.87-23.04L19.87-23.04Q23.69-17.14 26.39-13.46Q29.09-9.79 33.19-5.65Q37.30-1.51 43.49 3.24L43.49 3.24Q42.84 4.46 41.54 5.36Q40.25 6.26 39.02 6.26L39.02 6.26Z"></path>
            </svg>
          </g>
        </mask>
      </svg>
      <defs>
        <filter id="colors2769168002">
          <feColorMatrix type="matrix" values="0 0 0 0 0.19921875  0 0 0 0 0.19921875  0 0 0 0 0.19921875  0 0 0 1 0" class="icon-fecolormatrix"></feColorMatrix>
        </filter>
      </defs>
      <rect v-gra="id" width="154.9121551513672" height="154.9121551513672" transform="translate(-6, -6)" style="pointer-events:none;" fill="url(#VFGwJ_AV4lAz3FkHnGt1n)"></rect>
    </g>
    <g transform="translate(71.4560775756836,149.9121551513672)">
      <g data-gra="path-name" fill-rule="" class="tp-name iconsvg-namesvg" fill="url(#fa5b4358-a123-46b4-a32a-9028d97a525a)">
        <g transform="scale(1)">
          <g>
            <path d="" transform="translate(0, 0)"></path>
          </g>
        </g>
      </g>
    </g>
  </g>
</svg>
