<?xml version="1.0" encoding="utf-8"?>
<!-- Generator: Adobe Illustrator 25.3.1, SVG Export Plug-In . SVG Version: 6.00 Build 0)  -->
<svg version="1.1" id="svg_3" xmlns="http://www.w3.org/2000/svg" xmlns:xlink="http://www.w3.org/1999/xlink" x="0px" y="0px"
	 viewBox="0 0 170 170" style="enable-background:new 0 0 170 170;" xml:space="preserve">
<style type="text/css">
	.st0{fill:none;}
	.st1{fill:#B93026;}
</style>
<rect id="canvas_background" x="-1" y="-1" class="st0" width="172" height="172"/>
<g id="svg_24" transform="matrix(0.936397 0 0 0.968025 -6.89013 -1.16244)">
	<path id="svg_2" class="st1" d="M93.3,51.8c12.6-1.5,20.9,0.1,28.7,4.3c6.5,3.5,9.9,12.5,21.2,4.5c11.3-7.9,12.3-16.5,12.3-16.5
		C132.8,50.8,132.7,30,132.7,30s-7.9-0.6-20.2-2.9C97.7,24.2,83.8,5.2,83.8,5.2l-3.1,1.6c-3.1,1.5-3.7,5.7-1.1,8l17.7,16.7
		C78.2,34.7,63,12.7,63,12.7l-3.9,2.9c-2.5,1.9-2.6,5.6-0.3,7.7l11.6,10.5C64.2,35.7,58,38.3,54,40.8C36.6,51.3,22.6,70,19.6,87.2
		c-7.3,41.5,17.8,75.1,54,83c3.1,0.7,6.3,1.4,9.5,2.1c3.8,0.8,7.6-0.1,11.4,0.4c5.4,0.8,10.6-1.3,15.8-2.7c0.4-0.1,0.7-0.4,0.9-0.6
		c2.4-0.9,4.7-2.1,7.2-2.9c2.1-0.8,4.2-1.4,5.6-3.1c-12,5.6-24.2,7.8-37,6.3c2.4-0.1,4.7-0.3,7.2-0.8c0.1,0,0.2,0,0.3,0
		c1.3,0,2.6-0.4,4-0.6c2.4-0.2,4.9-0.2,7.3-0.7c2.5-0.5,4.8-1.5,7.4-2.3c1.1-0.4,2.4-0.6,3.5-0.9c3.3-1.1,6.6-2.4,9.8-3.7
		c0.7-0.3,1.2-1.1,1.7-1.7c1.2-1.8,2-3.8,4.2-4.6c-0.4,0.4-0.8,0.8-1.1,1c0.1,0.2,0.2,0.3,0.3,0.5c0.7-0.4,1.4-0.7,1.9-1.2
		c2.3-2.7,4.4-5.6,7.5-7.6c0.6-0.4,0.8-1,1.2-1.5c0.5-0.7,0.9-1.4,1.5-1.9c0.9-1,2.1-2,2.2-3.7c-2.7,2.4-5.2,4.4-7.7,6.6
		c-0.2-0.2-0.4-0.4-0.5-0.5c1.6-2,3.2-4.1,4.8-6c-0.2-0.1-0.3-0.2-0.4-0.3c-0.2,0.4-0.4,0.8-0.7,1.1c-2.5,2.3-5.1,4.5-7.7,6.7
		c-2.5,2.1-4.9,4.3-7.5,6.1c-2.9,1.8-6,3.5-9.2,4.7c-4.5,1.7-9.1,3.2-13.8,4.4h-0.1c-6.6,0.8-13.2,0.8-19.8-0.6
		c8,0.1,15.9,0.4,23.4-2.4c9.2-3.2,22-10.3,21.1-11.8c-0.4,0.1-0.8,0.2-1.1,0.3c0-0.1-0.1-0.2-0.1-0.2c1.4-1.3,2.9-2.6,4.3-4.1
		c-0.1-0.1-0.2-0.2-0.3-0.3c-2.8,1.9-5.7,3.9-8.5,5.9c2.3-2.5,4.7-4.6,7.1-6.9c2.3-2.4,4.4-4.9,6.5-7.5c2.2-2.6,4.3-7.3,4.1-8.3
		c-1.1,1.5-2.2,3.2-3.4,4.6c-1.4,1.7-2.9,3.5-4.5,5.1c-0.8,0.8-1.8,1.4-2.6,2.1c-0.9,0.8-1.9,1.7-2.8,2.5c-0.7,0.6-1.4,1-2.1,1.6
		c-0.4,0.4-0.8,1-1.2,1.3c-2.2,1.1-4.5,2.1-6.6,3.3c-6.2,3.5-12.8,5.6-20,6.2c-1,0.1-2.1,0.1-3.1,0.2c-7.6-0.5-15.2-2.3-22.6-5.1
		c-14.3-5.5-22.4-19.8-25.2-34.9c-2.4-12.5-1.2-24.7,6.1-35.4C58.2,68.9,72.7,54.3,93.3,51.8L93.3,51.8z"/>
</g>
<g id="svg_7">
	<path id="svg_12" d="M59,104.3V86.7h2.6v7.8l7.8-7.8h3.8l-8.8,8.8l8.8,8.8h-3.8l-7.8-7.8v7.8C61.6,104.3,59,104.3,59,104.3z"/>
	<path id="svg_11" d="M74.5,86.7v17.6h12v-1.6h-9.4v-16H74.5z"/>
	<path id="svg_10" d="M87.8,104.3h2.9l1.9-4.7h8l1.9,4.7h2.9L98,86.7h-3L87.8,104.3z M99.8,98.1h-6.6l3.3-8.1
		C96.5,90,99.8,98.1,99.8,98.1z"/>
	<path id="svg_9" d="M106.6,86.7v17.6h2.6V90l9.5,14.3h3.6V86.7h-2.6V101l-9.5-14.3C110.2,86.7,106.6,86.7,106.6,86.7z"/>
	<path id="svg_8" d="M139.6,94.7h-7.3v1.6h4.7v5.5c-1.2,0.8-2.5,1.2-3.9,1.2l0,0c-1.9,0-3.5-0.7-4.9-2.1l0,0c-1.4-1.4-2-3.1-2-5.1
		l0,0c0-2,0.7-3.7,2-5.1l0,0c1.3-1.4,3-2.1,4.9-2.1l0,0c2.4,0,4.3,0.6,5.9,1.8l0,0l1.1-1.1c-1.9-1.9-4.2-2.9-7-2.9l0,0
		c-2.6,0-4.9,0.9-6.8,2.7l0,0c-1.9,1.8-2.8,3.9-2.8,6.5l0,0c0,2.5,0.9,4.7,2.8,6.5l0,0c1.9,1.8,4.1,2.7,6.8,2.7l0,0
		c2.5,0,4.7-0.8,6.5-2.5l0,0C139.6,102.2,139.6,94.7,139.6,94.7z"/>
</g>
</svg>
